<?xml version="1.0" encoding="UTF-8"?>
<svg version="1.1" xmlns="http://www.w3.org/2000/svg" width="1250" height="1250">
<path d="M0 0 C412.5 0 825 0 1250 0 C1250 412.5 1250 825 1250 1250 C837.5 1250 425 1250 0 1250 C0 837.5 0 425 0 0 Z " fill="#FEFEFE" transform="translate(0,0)"/>
<path d="M0 0 C2.68081342 0.01071254 5.36095493 0.0000482 8.04174805 -0.01269531 C21.53815258 -0.02482656 34.61091803 0.89314468 47.68823242 4.51074219 C48.88198486 4.83498169 48.88198486 4.83498169 50.09985352 5.16577148 C80.33260868 13.61059107 105.48551151 28.82555456 128.25073242 50.26074219 C129.03448242 50.97875 129.81823242 51.69675781 130.62573242 52.43652344 C152.34458827 73.03065282 165.93000966 102.40229544 172.25073242 131.26074219 C172.521073 132.42259033 172.521073 132.42259033 172.796875 133.60791016 C174.59620264 142.15451445 174.6927709 150.69172797 174.68823242 159.38574219 C174.68863525 160.1773172 174.68903809 160.96889221 174.68945312 161.78445435 C174.59236011 195.05011014 164.20149388 228.05108514 143.25073242 254.26074219 C142.26459961 255.54851562 142.26459961 255.54851562 141.25854492 256.86230469 C136.95000648 262.41143396 132.3067219 267.39201158 127.25073242 272.26074219 C126.07510742 273.46730469 126.07510742 273.46730469 124.87573242 274.69824219 C123.57635742 275.96667969 123.57635742 275.96667969 122.25073242 277.26074219 C121.59073242 277.90527344 120.93073242 278.54980469 120.25073242 279.21386719 C113.17285458 285.87266016 105.45899875 291.12499802 97.25073242 296.26074219 C96.13827148 296.96328125 95.02581055 297.66582031 93.87963867 298.38964844 C61.56214741 317.84104777 24.68671806 324.01176008 -12.49926758 321.88574219 C-13.63219238 321.82136963 -14.76511719 321.75699707 -15.93237305 321.69067383 C-19.74926758 321.26074219 -19.74926758 321.26074219 -23.10571289 320.16894531 C-27.15672105 318.99979359 -30.63406241 318.23176428 -34.74926758 319.26074219 C-41.8422813 323.41657749 -47.25733412 330.13648423 -52.74926758 336.13574219 C-54.30387399 337.76715529 -55.86244158 339.39480336 -57.42504883 341.01855469 C-63.50942818 347.38063658 -69.44863437 353.85158558 -75.19970703 360.51687622 C-76.66210539 362.1626504 -78.18627902 363.71128108 -79.74926758 365.26074219 C-79.05812268 365.26313054 -78.36697779 365.26551889 -77.65488911 365.26797962 C-60.83744762 365.32711681 -44.02016797 365.40265857 -27.20288563 365.4964571 C-19.0701661 365.54142185 -10.93749043 365.58083492 -2.8046875 365.60717773 C4.2839049 365.63015235 11.3723586 365.66354429 18.460841 365.70944375 C22.21412579 365.73338333 25.96727315 365.75210723 29.72063255 365.75835609 C33.91079668 365.76552737 38.10048245 365.79595571 42.29052734 365.82836914 C44.15708733 365.82621651 44.15708733 365.82621651 46.06135559 365.82402039 C47.20413971 365.83655853 48.34692383 365.84909668 49.52433777 365.86201477 C50.51526523 365.86662374 51.50619268 365.8712327 52.52714825 365.87598133 C56.68868249 366.46388146 59.31977444 368.3297842 62.25073242 371.26074219 C63.05152889 378.23911141 63.05152889 378.23911141 60.21635437 381.85613728 C56.52778959 384.8469234 53.79154682 384.96636387 49.2421875 384.90238953 C48.44106694 384.91089505 47.63994638 384.91940056 46.81454945 384.92816383 C44.13267205 384.9504324 41.45218238 384.93699775 38.77026367 384.92358398 C36.84661871 384.93199699 34.922982 384.94252202 32.99935913 384.95500183 C27.77619964 384.98208058 22.5535172 384.97734123 17.33031845 384.96530128 C12.97124127 384.95817598 8.61225265 384.96666504 4.25318241 384.97520667 C-6.02863966 384.99516761 -16.31022926 384.98957921 -26.59204102 384.9675293 C-37.20377123 384.94515873 -47.81489335 384.96277083 -58.42656612 385.00057858 C-67.53499715 385.03179236 -76.64323972 385.03973471 -85.75171757 385.02862483 C-91.19295648 385.02213114 -96.63384431 385.0241719 -102.07504272 385.04794884 C-107.1905043 385.06916385 -112.30510605 385.06127132 -117.42051315 385.03085518 C-119.29865286 385.02451515 -121.17685899 385.02841895 -123.05495071 385.0432663 C-125.61786584 385.06188664 -128.1779499 385.04360014 -130.74072266 385.01591492 C-131.85769925 385.03701459 -131.85769925 385.03701459 -132.99724102 385.05854052 C-135.83153457 384.99676884 -138.08159064 384.8002104 -140.33148766 382.98234332 C-142.5402116 380.45631661 -143.70140625 378.4952627 -144.37426758 375.19824219 C-143.48782028 371.03193991 -142.24255893 369.70604614 -138.74926758 367.26074219 C-135.41564556 366.56857029 -132.14903663 366.33335861 -128.74926758 366.26074219 C-129.9790332 365.69806641 -129.9790332 365.69806641 -131.23364258 365.12402344 C-132.31129883 364.61226562 -133.38895508 364.10050781 -134.49926758 363.57324219 C-135.56661133 363.074375 -136.63395508 362.57550781 -137.73364258 362.06152344 C-141.97390786 359.52944793 -144.04997498 356.30968108 -146.74926758 352.26074219 C-148.46254823 336.70097869 -145.34656352 320.47917085 -143.56262207 305.00836182 C-143.14372768 301.35949614 -142.73486681 297.70950832 -142.32543945 294.05957031 C-141.7244792 288.70611905 -141.11701034 283.35346536 -140.50537109 278.0012207 C-139.95210525 273.13595428 -139.43702355 268.26943685 -138.97789001 263.39439392 C-138.81440377 261.86863505 -138.60922263 260.3471145 -138.37672424 258.83033752 C-137.36415516 251.77482917 -140.88878849 247.24779998 -144.6184082 241.6394043 C-158.43050522 220.83650712 -166.88023002 194.60513278 -166.91723633 169.58886719 C-166.92056473 168.78519714 -166.92389313 167.9815271 -166.92732239 167.15350342 C-166.93235371 165.46269293 -166.9347319 163.77187265 -166.93457031 162.08105469 C-166.93674992 159.53140386 -166.95492742 156.98219136 -166.97387695 154.43261719 C-167.01848044 142.00083566 -165.76128685 130.5748936 -162.12426758 118.63574219 C-161.86701904 117.78818359 -161.60977051 116.940625 -161.34472656 116.06738281 C-147.91520507 73.35332686 -117.12436384 39.32606661 -77.99145508 18.38574219 C-66.62144746 12.55387355 -54.66776058 8.30462371 -42.37426758 4.88574219 C-41.52010254 4.64702393 -40.6659375 4.40830566 -39.78588867 4.16235352 C-26.53138904 0.66734193 -13.62573937 -0.06461819 0 0 Z " fill="#06686E" transform="translate(662.749267578125,302.7392578125)"/>
<path d="M0 0 C4.46513661 0.63097208 8.16957476 2.3641923 12.16015625 4.359375 C12.85429123 4.70020111 13.54842621 5.04102722 14.26359558 5.3921814 C15.75580989 6.12528573 17.24680698 6.86087193 18.73669434 7.59869385 C22.67879878 9.55009038 26.63050874 11.48182641 30.58203125 13.4140625 C31.37821869 13.80379242 32.17440613 14.19352234 32.99472046 14.59506226 C43.62106841 19.78539965 54.3614629 24.7252748 65.10546875 29.66650391 C69.1602072 31.53450166 73.20604651 33.42129294 77.25 35.3125 C78.38953125 35.84488281 79.5290625 36.37726563 80.703125 36.92578125 C81.46109375 37.28027344 82.2190625 37.63476562 83 38 C81.6491736 42.33093726 79.98051601 46.31286837 77.98046875 50.3828125 C77.6859935 50.98566071 77.39151825 51.58850891 77.08811951 52.20962524 C76.45477414 53.50599162 75.8199067 54.80161529 75.18365479 56.09655762 C73.46875383 59.5885629 71.76689469 63.08689576 70.06640625 66.5859375 C69.72031311 67.29794312 69.37421997 68.00994873 69.01763916 68.74353027 C65.80292268 75.37434436 62.70304834 82.05459759 59.625 88.75 C54.37440648 100.15395221 48.92148771 111.44896187 43.41113281 122.72897339 C36.84714719 136.17230746 30.492187 149.70176317 24.26416016 163.30395508 C22.89269155 166.22885422 21.45556636 169.11615585 20 172 C14.34181452 171.45356734 9.99107539 169.28066258 4.9921875 166.765625 C4.12112869 166.33565216 3.25006989 165.90567932 2.35261536 165.462677 C0.48851806 164.54179498 -1.37389936 163.61750601 -3.23477173 162.69012451 C-8.08219898 160.27477937 -12.94182237 157.88422701 -17.80078125 155.4921875 C-18.76245712 155.01806427 -19.724133 154.54394104 -20.71495056 154.05545044 C-31.91060435 148.54707774 -43.23057858 143.32650996 -54.57275391 138.12792969 C-57.41303631 136.80806399 -60.21341592 135.42926344 -63 134 C-62.36462802 129.6489277 -60.80216045 126.20780192 -58.859375 122.27734375 C-58.3820417 121.30395302 -58.3820417 121.30395302 -57.89506531 120.31089783 C-57.20945592 118.91366344 -56.52135814 117.51764786 -55.83102417 116.1227417 C-53.98520062 112.39149247 -52.1589202 108.65070355 -50.33203125 104.91015625 C-49.9619545 104.15327515 -49.59187775 103.39639404 -49.21058655 102.61657715 C-45.85865084 95.74529613 -42.63108623 88.82140176 -39.4375 81.875 C-34.60077054 71.37112062 -29.61544704 60.9489117 -24.55178833 50.55334473 C-19.32693506 39.82227265 -14.25256523 29.02885736 -9.29882812 18.16992188 C-6.44671053 11.9549153 -3.43965695 5.91196953 0 0 Z " fill="#FBF4E9" transform="translate(606,427)"/>
<path d="M0 0 C6.20403371 4.55626005 9.81868079 11.09909192 11.19140625 18.609375 C13.5526958 41.63923604 3.15040042 67.02927662 -10.80859375 84.984375 C-18.76870061 94.45254898 -27.03578177 103.31956225 -39.88671875 105.015625 C-48.01723261 105.25593575 -53.6182715 104.07208252 -59.80859375 98.609375 C-67.66566833 89.59252434 -68.5355995 80.20628928 -67.80859375 68.609375 C-65.11543737 44.59131675 -53.46048097 19.64904919 -34.62109375 4.109375 C-24.17690046 -3.80878085 -11.96339316 -6.83622466 0 0 Z " fill="#08696F" transform="translate(646.80859375,463.390625)"/>
<path d="M0 0 C8.415 1.485 8.415 1.485 17 3 C17 32.37 17 61.74 17 92 C-15.54636234 99.23252496 -15.54636234 99.23252496 -30.2734375 90.6796875 C-36.54889344 86.27965518 -42.68746105 80.45030237 -45 73 C-46.18396028 61.84874623 -44.48379056 52.40407272 -37.8125 43.3125 C-32.36516644 36.78509168 -26.07197508 29.50719751 -17.25 28.625 C-10.75735557 28.78247085 -6.04634611 32.21524041 -1 36 C-0.67 24.12 -0.34 12.24 0 0 Z " fill="#CE5C2E" transform="translate(414,709)"/>
<path d="M0 0 C6.92413336 6.33550457 10.81124688 12.2017985 11.24609375 21.72265625 C10.92300398 32.97910384 6.76154833 41.57110463 -1.0390625 49.56640625 C-5.99299543 54.10969571 -10.40216452 56.70651166 -17.25390625 57.03515625 C-23.25390625 56.59765625 -23.25390625 56.59765625 -34.25390625 50.59765625 C-34.58390625 62.14765625 -34.91390625 73.69765625 -35.25390625 85.59765625 C-46.25390625 84.59765625 -46.25390625 84.59765625 -51.25390625 82.59765625 C-51.25390625 53.55765625 -51.25390625 24.51765625 -51.25390625 -5.40234375 C-32.53126454 -10.08300418 -15.95256641 -12.96767872 0 0 Z " fill="#CD5A2A" transform="translate(717.25390625,747.40234375)"/>
<path d="M0 0 C1.5182877 1.29130117 3.01984044 2.6026652 4.5 3.9375 C5.16773438 4.535625 5.83546875 5.13375 6.5234375 5.75 C15.3053921 14.05024401 15.3053921 14.05024401 15.59692383 19.87353516 C14.95507207 26.54290918 12.61077296 31.95712757 9.6875 37.9375 C9.24857422 38.89011719 8.80964844 39.84273438 8.35742188 40.82421875 C7.92365234 41.72785156 7.48988281 42.63148438 7.04296875 43.5625 C6.65133545 44.37976563 6.25970215 45.19703125 5.85620117 46.0390625 C4.5 47.9375 4.5 47.9375 2.63542175 48.64021301 C-1.04242215 49.15223137 -4.0844968 47.10769317 -7.3046875 45.51171875 C-8.08469116 45.13697922 -8.86469482 44.76223969 -9.66833496 44.37614441 C-12.24257809 43.13652459 -14.80858934 41.88074425 -17.375 40.625 C-19.1564606 39.76388771 -20.9385325 38.90403899 -22.72119141 38.04541016 C-26.43223917 36.25700137 -30.14067808 34.4633314 -33.84765625 32.66650391 C-41.99184199 28.72598988 -50.17378829 24.86538329 -58.3550415 21.00259399 C-62.37082333 19.10607155 -66.38466997 17.20546822 -70.3984375 15.3046875 C-71.09239624 14.9763945 -71.78635498 14.6481015 -72.50134277 14.30986023 C-77.27277288 12.05111356 -77.27277288 12.05111356 -79.5 10.9375 C-77.84904868 5.53678157 -75.61576321 0.49027061 -73.25 -4.625 C-72.88003906 -5.46224609 -72.51007812 -6.29949219 -72.12890625 -7.16210938 C-69.43188969 -12.97496248 -66.71777091 -17.3819819 -60.5 -19.859375 C-39.1691525 -22.0257892 -16.73120286 -13.10060801 0 0 Z " fill="#FCF4E9" transform="translate(693.5,400.0625)"/>
<path d="M0 0 C4.16863053 1.30835989 8.02452445 2.87683629 11.9453125 4.80078125 C13.66476074 5.63923584 13.66476074 5.63923584 15.41894531 6.49462891 C16.32465271 6.93902313 16.32465271 6.93902313 17.24865723 7.39239502 C20.47119123 8.97263379 23.70022346 10.53945197 26.9296875 12.10546875 C27.59371582 12.42757324 28.25774414 12.74967773 28.94189453 13.08154297 C36.01067363 16.50241554 43.12427243 19.82474037 50.25 23.125 C51.96920654 23.92224487 51.96920654 23.92224487 53.72314453 24.7355957 C59.79307763 27.5419158 65.87816739 30.3086741 72 33 C70.47408996 36.5780831 68.35643965 38.92481797 65.64550781 41.69262695 C64.74407043 42.61650711 63.84263306 43.54038727 62.91387939 44.49226379 C61.92759381 45.49156098 60.9406597 46.49021845 59.953125 47.48828125 C59.45495018 47.99335897 58.95677536 48.4984367 58.44350433 49.01881981 C55.80983656 51.68825476 53.17012798 54.35154334 50.52539062 57.01000977 C47.79512492 59.75687005 45.08645852 62.52404921 42.38212967 65.29641438 C40.29711184 67.42616588 38.19668835 69.54020223 36.09175873 71.65025902 C35.08596542 72.66395211 34.08605956 73.68352226 33.09226227 74.70897865 C31.70215243 76.14043142 30.28758468 77.54800952 28.87207031 78.9543457 C28.07424133 79.76168655 27.27641235 80.5690274 26.45440674 81.40083313 C24 83 24 83 20.88150024 82.82879639 C17.70838543 81.91612387 14.91114999 80.72968685 11.9453125 79.27734375 C10.83671875 78.73916016 9.728125 78.20097656 8.5859375 77.64648438 C7.44382812 77.08251953 6.30171875 76.51855469 5.125 75.9375 C3.9596875 75.36966797 2.794375 74.80183594 1.59375 74.21679688 C-1.2742724 72.81804825 -4.13861866 71.41227112 -7 70 C-5.67588031 53.99540425 -4.10304186 38.02815845 -2.375 22.0625 C-2.14301768 19.9030175 -1.91124604 17.74351236 -1.6796875 15.58398438 C-1.12220431 10.38906036 -0.56192614 5.19444522 0 0 Z " fill="#FCF4E9" transform="translate(540,579)"/>
<path d="M0 0 C2.12027969 0.44457477 4.23913937 0.89733065 6.34902954 1.38885498 C8.11504766 1.79598633 9.8898691 2.16666683 11.67123413 2.50030518 C18.1073227 3.95131024 18.1073227 3.95131024 20.4475708 6.70056152 C21.62810123 8.9398211 22.50699281 11.16055401 23.3515625 13.546875 C23.69401001 14.41452484 24.03645752 15.28217468 24.38928223 16.17611694 C25.50353767 19.02167497 26.56372401 21.88431103 27.625 24.75 C28.38785731 26.72530889 29.15466976 28.69909456 29.92529297 30.67138672 C31.51127843 34.73902095 33.07944712 38.81289472 34.63671875 42.89160156 C36.90842286 48.80653822 39.29097418 54.67106089 41.71875 60.5234375 C42.09333344 61.4266272 42.46791687 62.32981689 42.85385132 63.26037598 C43.58690812 65.02511778 44.32056671 66.78960975 45.05487061 68.55383301 C46.75532889 72.63947183 48.44887754 76.72783656 50.1328125 80.8203125 C50.4256311 81.52344574 50.71844971 82.22657898 51.0201416 82.95101929 C53 87.771976 53 87.771976 53 90 C47.06427922 89.7639202 41.04875437 89.39914944 36 86 C31.70501701 80.00917786 28 70.46502798 28 63 C17.77 63.66 7.54 64.32 -3 65 C-5.97 72.92 -8.94 80.84 -12 89 C-24.375 87.875 -24.375 87.875 -30 86 C-28.54624181 78.46851153 -26.14965585 71.5280228 -23.45703125 64.35546875 C-22.77388449 62.51256892 -22.09073949 60.66966843 -21.40768719 58.82673359 C-20.4539885 56.25807243 -19.49492219 53.691429 -18.53588867 51.12475586 C-16.41857439 45.45452677 -14.31330979 39.77980393 -12.20703125 34.10546875 C-11.53246384 32.29017166 -11.53246384 32.29017166 -10.8442688 30.4382019 C-7.10045826 20.33614097 -3.50201938 10.1881654 0 0 Z " fill="#CE5B2C" transform="translate(310,715)"/>
<path d="M0 0 C1.67534254 0.28655932 3.34076407 0.63145556 5 1 C6.52210083 1.20629028 6.52210083 1.20629028 8.07495117 1.41674805 C13.45185976 2.49437064 16.92848276 3.5045336 20.20166016 8.07275391 C22.27213252 12.17607166 23.77791356 16.48781255 25.3125 20.8125 C25.92033287 22.40780441 26.53339537 24.00112495 27.15136719 25.5925293 C28.45330818 28.9589338 29.7305331 32.33332782 30.99267578 35.71484375 C34.03359316 43.79941253 37.37530374 51.76182092 40.68490601 59.73910522 C42.67442217 64.54601477 44.63755907 69.36375839 46.60362244 74.18029785 C47.01204124 75.17833435 47.01204124 75.17833435 47.42871094 76.1965332 C47.81730286 77.14829941 47.81730286 77.14829941 48.21374512 78.11929321 C48.74945909 79.40071089 49.30206324 80.67516712 49.8692627 81.94296265 C51.15647201 84.82064432 52 86.80680641 52 90 C49.55764329 89.603455 47.12324683 89.18391633 44.6875 88.75 C43.99720703 88.64042969 43.30691406 88.53085937 42.59570312 88.41796875 C37.42323357 87.46843328 37.42323357 87.46843328 35.390625 85.21875 C33.99456561 82.99132939 33.06089239 80.92475609 32.17578125 78.453125 C31.89903564 77.69161133 31.62229004 76.93009766 31.3371582 76.14550781 C30.999021 75.18999023 30.66088379 74.23447266 30.3125 73.25 C29.219375 70.1975 28.12625 67.145 27 64 C16.77 64 6.54 64 -4 64 C-4.99 67.3 -5.98 70.6 -7 74 C-7.85342777 76.5282181 -8.72595619 79.05014136 -9.625 81.5625 C-10.05039062 82.76003906 -10.47578125 83.95757813 -10.9140625 85.19140625 C-12 88 -12 88 -13 89 C-19.18367567 88.87498012 -25.24632716 88.39736368 -31 86 C-28.93627748 77.81361256 -26.27962227 69.95838135 -23.32421875 62.0546875 C-22.63975569 60.20563095 -21.95529379 58.35657396 -21.27089405 56.50749397 C-20.31977818 53.94144549 -19.36433812 51.37701593 -18.40893555 48.81256104 C-16.29112586 43.12475489 -14.18364397 37.4331068 -12.07421875 31.7421875 C-11.62746796 30.53923035 -11.18071716 29.33627319 -10.72042847 28.09686279 C-7.95899056 20.64593195 -5.25087168 13.17979967 -2.67692566 5.66183472 C-1.10245129 1.10245129 -1.10245129 1.10245129 0 0 Z " fill="#CD5B2C" transform="translate(942,715)"/>
<path d="M0 0 C1.9169986 0.31045732 3.83358723 0.62344671 5.75 0.9375 C7.35101562 1.19853516 7.35101562 1.19853516 8.984375 1.46484375 C11.36623068 1.88753057 13.66101161 2.39760016 16 3 C16.01213028 3.8544445 16.01213028 3.8544445 16.02450562 4.72615051 C16.1104667 10.64717188 16.20996639 16.56785519 16.31738281 22.48852539 C16.35570017 24.69907968 16.39054814 26.90969692 16.421875 29.12036133 C16.46746552 32.29531371 16.52547003 35.46983172 16.5859375 38.64453125 C16.59748871 39.63524124 16.60903992 40.62595123 16.62094116 41.64668274 C16.64081085 42.56741074 16.66068054 43.48813873 16.68115234 44.43676758 C16.69447601 45.2472908 16.70779968 46.05781403 16.7215271 46.89289856 C16.88223777 49.30100191 16.88223777 49.30100191 19 52 C23.33585698 52.95177348 25.9465524 51.69144067 29.5625 49.4375 C34.10379146 46.45044733 38.25775703 42.31742883 39.47697449 36.86817932 C39.66995933 34.49572623 39.71848916 32.16536546 39.70703125 29.78515625 C39.72215256 28.92941513 39.73727386 28.07367401 39.75285339 27.19200134 C39.79554551 24.48189564 39.80455018 21.77290768 39.8125 19.0625 C39.83565878 17.21546546 39.86102699 15.36845722 39.88867188 13.52148438 C39.9513412 9.01422492 39.98382078 4.50765636 40 0 C41.70930812 0.28589851 43.41740912 0.57901758 45.125 0.875 C46.07632813 1.03742187 47.02765625 1.19984375 48.0078125 1.3671875 C51.10781574 2.02280176 54.00395675 2.97704963 57 4 C57.13957165 12.95400126 57.245908 21.90762298 57.31087303 30.86247826 C57.34206752 35.02150516 57.38431839 39.17978301 57.45263672 43.33837891 C57.51825991 47.35848886 57.55379521 51.37788249 57.56926346 55.39848709 C57.58027359 56.92543425 57.60177312 58.45234616 57.63438034 59.97898483 C57.82519622 69.29073891 57.30453438 76.66419641 51 84 C43.78375077 90.84415345 35.8939488 95.59359666 25.76635742 95.42993164 C20.51416291 94.61366524 16.32395873 91.77435067 11.875 89 C10.44027344 88.14148438 10.44027344 88.14148438 8.9765625 87.265625 C6.63852756 85.86280404 4.31449501 84.44120915 2 83 C3.75 78.125 3.75 78.125 6 77 C8.03372428 78.08485002 10.02781814 79.244423 12 80.4375 C17.7008897 83.68418083 22.44221563 85.46389742 29 84 C33.73985912 81.89339595 36.14428767 79.11705559 38.25390625 74.50390625 C39.75432462 69.46847077 39.84072773 64.22413031 40 59 C39.443125 59.42152344 38.88625 59.84304688 38.3125 60.27734375 C30.23428987 66.07673447 30.23428987 66.07673447 25.03125 66.35546875 C16.09910118 64.79234271 8.17056859 55.12510605 3.0625 48.1875 C0.68816948 44.5180801 -0.12635635 42.07666341 -0.11352539 37.80395508 C-0.11344986 36.96331009 -0.11337433 36.1226651 -0.11329651 35.25654602 C-0.10813522 34.35333115 -0.10297394 33.45011627 -0.09765625 32.51953125 C-0.0962413 31.59154221 -0.09482635 30.66355316 -0.09336853 29.70744324 C-0.08776937 26.74242942 -0.07521704 23.77749101 -0.0625 20.8125 C-0.05748489 18.80273547 -0.052922 16.79296975 -0.04882812 14.78320312 C-0.03780021 9.85543968 -0.02053617 4.92773263 0 0 Z " fill="#CE5D2F" transform="translate(595,739)"/>
<path d="M0 0 C15 3 15 3 16 4 C16.08851529 6.59359322 16.11525945 9.16039691 16.09765625 11.75390625 C16.0962413 12.52935287 16.09482635 13.3047995 16.09336853 14.10374451 C16.08775345 16.59003494 16.07519846 19.0762366 16.0625 21.5625 C16.05748694 23.24413933 16.0529237 24.92578006 16.04882812 26.60742188 C16.03777913 30.73831566 16.02050445 34.86914276 16 39 C16.73605469 38.44570313 17.47210938 37.89140625 18.23046875 37.3203125 C19.20628906 36.59585938 20.18210937 35.87140625 21.1875 35.125 C22.15042969 34.40570312 23.11335938 33.68640625 24.10546875 32.9453125 C29.09133608 29.59448668 32.96058798 28.36427242 39 29 C47.82866534 33.51242895 58.52989713 43.05979427 63 52 C63.08918777 53.38909304 63.11759541 54.78236907 63.11352539 56.17431641 C63.11344986 57.03505768 63.11337433 57.89579895 63.11329651 58.78262329 C63.10813522 59.71287323 63.10297394 60.64312317 63.09765625 61.6015625 C63.0962413 62.55316254 63.09482635 63.50476257 63.09336853 64.48519897 C63.08776012 67.53183097 63.07520619 70.57839013 63.0625 73.625 C63.05748608 75.68749894 63.05292299 77.74999903 63.04882812 79.8125 C63.03778796 84.87502817 63.02051767 89.93750173 63 95 C57.43109483 94.52013969 52.32932432 93.70084819 47 92 C46.98786972 91.12343246 46.98786972 91.12343246 46.97549438 90.22915649 C46.88962436 84.16231025 46.79012925 78.09579741 46.68261719 72.02929688 C46.64426729 69.76340318 46.60942517 67.49744735 46.578125 65.23144531 C46.53260473 61.97959133 46.47458924 58.7281674 46.4140625 55.4765625 C46.40251129 54.45881744 46.39096008 53.44107239 46.37905884 52.39248657 C46.35918915 51.45166229 46.33931946 50.51083801 46.31884766 49.54150391 C46.30552399 48.71099518 46.29220032 47.88048645 46.2784729 47.02481079 C46.17664458 44.77386386 46.17664458 44.77386386 44 43 C39.30599582 42.488642 36.67066326 43.32774273 32.75 45.875 C31.89921875 46.40867187 31.0484375 46.94234375 30.171875 47.4921875 C29.1062998 48.31753995 28.05062591 49.15570007 27 50 C26.15904785 50.61117676 25.3180957 51.22235352 24.45166016 51.85205078 C20.18927439 55.38695292 16.9863105 58.49453609 16.10351562 64.09033203 C15.67817687 68.77091259 15.76502121 73.43193976 15.875 78.125 C15.87694541 79.76562591 15.87437743 81.40626369 15.8671875 83.046875 C15.85942392 87.03329227 15.91270937 91.01457742 16 95 C14.64509704 94.88325099 13.29109304 94.75606577 11.9375 94.625 C11.18339844 94.55539062 10.42929687 94.48578125 9.65234375 94.4140625 C6.37548507 93.90250577 3.18894068 92.91112591 0 92 C0 61.64 0 31.28 0 0 Z " fill="#CD5A2B" transform="translate(447,709)"/>
<path d="M0 0 C7.07278094 5.55228019 15.55921054 12.88830084 19.12890625 21.3359375 C19.37182617 23.47631836 19.37182617 23.47631836 19.359375 25.80078125 C19.35808594 26.67395996 19.35679687 27.54713867 19.35546875 28.44677734 C19.34257813 29.3795752 19.3296875 30.31237305 19.31640625 31.2734375 C19.30996094 32.23459473 19.30351563 33.19575195 19.296875 34.18603516 C19.19197193 44.24853474 18.70408528 54.29084665 18.12890625 64.3359375 C16.71315051 64.19528948 15.29787507 64.04980261 13.8828125 63.90234375 C13.09463135 63.82185791 12.3064502 63.74137207 11.49438477 63.65844727 C8.23542453 63.21412004 5.25905769 62.334922 2.12890625 61.3359375 C1.79890625 59.6859375 1.46890625 58.0359375 1.12890625 56.3359375 C0.69320312 56.73425781 0.2575 57.13257813 -0.19140625 57.54296875 C-4.67906833 61.53523956 -8.69386711 64.62988714 -14.68359375 65.9609375 C-24.01776953 64.13070695 -30.608486 54.61535301 -35.87109375 47.3359375 C-38.39928833 43.5336921 -39.7847196 40.33787759 -40.18359375 35.7109375 C-38.1943596 30.59576397 -34.65094942 28.75537062 -29.87109375 26.3359375 C-26.91898765 25.0823034 -23.97058026 24.15159185 -20.87109375 23.3359375 C-19.86175781 23.04589844 -19.86175781 23.04589844 -18.83203125 22.75 C-11.64945705 20.89382914 -4.24879195 20.70530842 3.12890625 20.3359375 C2.86094396 15.44102075 2.86094396 15.44102075 0.3984375 11.39453125 C-7.21839339 7.84175815 -17.8989237 12.26871425 -25.5234375 14.59375 C-28.90089098 15.34254365 -30.68672152 15.66647065 -33.87109375 14.3359375 C-35.453125 12.05078125 -35.453125 12.05078125 -36.68359375 9.2734375 C-37.10253906 8.35433594 -37.52148438 7.43523438 -37.953125 6.48828125 C-38.25605469 5.77800781 -38.55898438 5.06773437 -38.87109375 4.3359375 C-10.53254854 -6.10457916 -10.53254854 -6.10457916 0 0 Z " fill="#CE5B2C" transform="translate(779.87109375,739.6640625)"/>
<path d="M0 0 C7.07278094 5.55228019 15.55921054 12.88830084 19.12890625 21.3359375 C19.37182617 23.47631836 19.37182617 23.47631836 19.359375 25.80078125 C19.35808594 26.67395996 19.35679687 27.54713867 19.35546875 28.44677734 C19.34257813 29.3795752 19.3296875 30.31237305 19.31640625 31.2734375 C19.30996094 32.23459473 19.30351563 33.19575195 19.296875 34.18603516 C19.19197193 44.24853474 18.70408528 54.29084665 18.12890625 64.3359375 C16.71315051 64.19528948 15.29787507 64.04980261 13.8828125 63.90234375 C13.09463135 63.82185791 12.3064502 63.74137207 11.49438477 63.65844727 C8.23542453 63.21412004 5.25905769 62.334922 2.12890625 61.3359375 C1.79890625 59.6859375 1.46890625 58.0359375 1.12890625 56.3359375 C0.69320312 56.73425781 0.2575 57.13257813 -0.19140625 57.54296875 C-4.67906833 61.53523956 -8.69386711 64.62988714 -14.68359375 65.9609375 C-24.01776953 64.13070695 -30.608486 54.61535301 -35.87109375 47.3359375 C-38.39928833 43.5336921 -39.7847196 40.33787759 -40.18359375 35.7109375 C-38.1943596 30.59576397 -34.65094942 28.75537062 -29.87109375 26.3359375 C-26.91898765 25.0823034 -23.97058026 24.15159185 -20.87109375 23.3359375 C-19.86175781 23.04589844 -19.86175781 23.04589844 -18.83203125 22.75 C-11.64945705 20.89382914 -4.24879195 20.70530842 3.12890625 20.3359375 C2.86094396 15.44102075 2.86094396 15.44102075 0.3984375 11.39453125 C-7.21839339 7.84175815 -17.8989237 12.26871425 -25.5234375 14.59375 C-28.90089098 15.34254365 -30.68672152 15.66647065 -33.87109375 14.3359375 C-35.453125 12.05078125 -35.453125 12.05078125 -36.68359375 9.2734375 C-37.10253906 8.35433594 -37.52148438 7.43523438 -37.953125 6.48828125 C-38.25605469 5.77800781 -38.55898438 5.06773437 -38.87109375 4.3359375 C-10.53254854 -6.10457916 -10.53254854 -6.10457916 0 0 Z " fill="#CE5B2C" transform="translate(561.87109375,739.6640625)"/>
<path d="M0 0 C9 1 9 1 16 3 C16.33 18.84 16.66 34.68 17 51 C21.29 46.71 25.58 42.42 30 38 C38.54771801 30.15483415 38.54771801 30.15483415 42 29 C45.234375 29.4609375 45.234375 29.4609375 48.75 30.375 C49.92046875 30.67148437 51.0909375 30.96796875 52.296875 31.2734375 C53.18890625 31.51320313 54.0809375 31.75296875 55 32 C55 32.66 55 33.32 55 34 C53.53125 35.4453125 53.53125 35.4453125 51.5 37.125 C48.48727235 39.67996338 45.64152112 42.30507113 42.875 45.125 C39.73419266 48.31546437 36.4948314 51.20413488 33 54 C34.68530732 57.89135566 37.24665309 61.02844584 39.875 64.3125 C40.35098633 64.91626465 40.82697266 65.5200293 41.31738281 66.14208984 C43.97626466 69.50499661 46.67867283 72.82531216 49.4296875 76.11328125 C49.98414551 76.78383545 50.53860352 77.45438965 51.10986328 78.14526367 C52.18862152 79.44738492 53.27792196 80.74085619 54.37841797 82.0246582 C55.859375 83.8203125 55.859375 83.8203125 58 87 C57.77832031 89.08544922 57.77832031 89.08544922 57 91 C53.11091609 94.0482009 53.11091609 94.0482009 50.109375 93.91796875 C46.92199003 92.53086603 45.60755559 90.28651756 43.5625 87.5 C42.69178355 86.32914641 41.82066784 85.15858965 40.94921875 83.98828125 C40.48177246 83.3535791 40.01432617 82.71887695 39.53271484 82.06494141 C36.69216949 78.23803274 33.77681608 74.46801543 30.875 70.6875 C29.74701682 69.21252935 28.61938105 67.73729293 27.4921875 66.26171875 C27.01120605 65.63225342 26.53022461 65.00278809 26.03466797 64.35424805 C25.69322754 63.90734619 25.35178711 63.46044434 25 63 C21.78972988 64.5767984 19.32557771 66.26265245 17 69 C15.8539568 73.45798929 15.92552356 77.79221669 16 82.375 C15.98839844 83.58800781 15.97679687 84.80101562 15.96484375 86.05078125 C15.94134147 89.03557077 15.95421337 92.01560175 16 95 C13.70763814 94.52417032 11.41612791 94.04423615 9.125 93.5625 C7.84882812 93.29566406 6.57265625 93.02882813 5.2578125 92.75390625 C2 92 2 92 0 91 C0 60.97 0 30.94 0 0 Z " fill="#CD592A" transform="translate(814,710)"/>
<path d="M0 0 C4.29697312 5.55438231 3.61291312 11.30022558 3 18 C-0.19234954 37.57572834 -9.62795371 57.11460826 -25 70 C-28.74607759 72.22582474 -31.64004319 72.39635971 -36 72 C-38.61593153 70.16884793 -38.96989455 69.09031634 -40 66 C-41.96317472 45.89609683 -33.77720637 26.6168238 -21.5 10.9375 C-15.48338341 3.9407067 -9.60950663 -2.3602297 0 0 Z " fill="#FCF4E9" transform="translate(637,478)"/>
<path d="M0 0 C6.70820393 1.49071198 13.37029477 3.19189857 20 5 C20 33.05 20 61.1 20 90 C8 88 8 88 0 86 C0 57.62 0 29.24 0 0 Z " fill="#CE5E30" transform="translate(1003,715)"/>
<path d="M0 0 C4.103632 3.40015223 6.86696529 6.70173693 7.42578125 12.125 C7.71400035 22.56156523 4.79934555 30.9928189 -1.97265625 38.99609375 C-6.3628323 43.33034399 -10.69710874 43.96202727 -16.625 44.0625 C-21.47298502 43.98225749 -21.47298502 43.98225749 -23.8125 42.8125 C-24.03570235 37.65328257 -24.19860225 32.49689491 -24.30688477 27.33398438 C-24.35203126 25.57990561 -24.41336921 23.82616349 -24.49145508 22.07324219 C-25.12444997 7.49367349 -25.12444997 7.49367349 -21.87451172 3.32910156 C-19.54056367 1.74665168 -17.48106686 0.70115049 -14.8125 -0.1875 C-9.85912639 -1.83862454 -4.8485638 -2.04717138 0 0 Z " fill="#FEFBFA" transform="translate(705.8125,748.1875)"/>
<path d="M0 0 C3.465 1.485 3.465 1.485 7 3 C7 15.21 7 27.42 7 40 C-1.03089021 44.46160567 -6.13115019 47.1066849 -15 46 C-18.42543309 44.31842375 -20.39043113 43.19400088 -22.13671875 39.7734375 C-24.62363018 31.78381255 -23.78471591 22.83784351 -20.265625 15.31640625 C-15.54243367 6.67179989 -11.1321866 -1.36711064 0 0 Z " fill="#FEFDFC" transform="translate(407,750)"/>
<path d="M0 0 C0.54757091 3.79919572 0.75494804 7.22005328 0 11 C-2.55527416 13.90872478 -5.51221608 15.39779926 -9 17 C-9.680625 17.33773437 -10.36125 17.67546875 -11.0625 18.0234375 C-15.77308915 20.09381741 -20.90141938 21.02574995 -26 20 C-27.82421875 18.7890625 -27.82421875 18.7890625 -29 17 C-28.89837257 14.0389463 -28.53595259 12.5536363 -26.4609375 10.41015625 C-21.57072425 7.25074881 -16.56775304 4.81248216 -11.1875 2.625 C-10.21852783 2.23066772 -10.21852783 2.23066772 -9.22998047 1.82836914 C-5.88896375 0.53295279 -3.64295217 0 0 0 Z " fill="#FDFAF9" transform="translate(782,770)"/>
<path d="M0 0 C0.54757091 3.79919572 0.75494804 7.22005328 0 11 C-2.55527416 13.90872478 -5.51221608 15.39779926 -9 17 C-9.680625 17.33773437 -10.36125 17.67546875 -11.0625 18.0234375 C-15.77308915 20.09381741 -20.90141938 21.02574995 -26 20 C-27.82421875 18.7890625 -27.82421875 18.7890625 -29 17 C-28.89837257 14.0389463 -28.53595259 12.5536363 -26.4609375 10.41015625 C-21.57072425 7.25074881 -16.56775304 4.81248216 -11.1875 2.625 C-10.21852783 2.23066772 -10.21852783 2.23066772 -9.22998047 1.82836914 C-5.88896375 0.53295279 -3.64295217 0 0 0 Z " fill="#FDFAF9" transform="translate(564,770)"/>
<path d="M0 0 C2.99827477 4.49741215 4.66772861 9.4783756 6.625 14.5 C7.04523438 15.55832031 7.46546875 16.61664062 7.8984375 17.70703125 C8.29546875 18.72152344 8.6925 19.73601563 9.1015625 20.78125 C9.46588379 21.71001953 9.83020508 22.63878906 10.20556641 23.59570312 C11 26 11 26 11 29 C0.11 29.495 0.11 29.495 -11 30 C-9.9275 26.720625 -8.855 23.44125 -7.75 20.0625 C-7.4209668 19.04808838 -7.09193359 18.03367676 -6.75292969 16.98852539 C-4.82639953 11.15630058 -2.6145796 5.55812897 0 0 Z " fill="#FDF8F6" transform="translate(322,738)"/>
<path d="M0 0 C2.35053296 2.35053296 2.99738376 4.23391418 4.1640625 7.33984375 C4.56367187 8.40267578 4.96328125 9.46550781 5.375 10.56054688 C5.7875 11.67494141 6.2 12.78933594 6.625 13.9375 C7.25535156 15.60329102 7.25535156 15.60329102 7.8984375 17.30273438 C11 25.61552608 11 25.61552608 11 29 C0.605 29.495 0.605 29.495 -10 30 C-7.75 19.875 -7.75 19.875 -6.0546875 15.52734375 C-5.70019531 14.60888672 -5.34570312 13.69042969 -4.98046875 12.74414062 C-4.43326172 11.35485352 -4.43326172 11.35485352 -3.875 9.9375 C-3.50246094 8.97650391 -3.12992188 8.01550781 -2.74609375 7.02539062 C-1.83644515 4.68129617 -0.92101046 2.33964819 0 0 Z " fill="#FDF8F7" transform="translate(953,738)"/>
<path d="M0 0 C4.66716563 1.58350262 5.92692531 3.00625362 8.5 7.1875 C8.75 9.6875 8.75 9.6875 7.5 12.1875 C5.30666109 14.38083891 2.96818027 16.31219855 0.5 18.1875 C-4.79158974 16.78678507 -7.27478044 13.33262755 -10.5 9.1875 C-8.12366554 4.16601497 -5.94630456 0.31855203 0 0 Z " fill="#CE5C2D" transform="translate(897.5,785.8125)"/>
</svg>
